<svg width="16" height="16" viewBox="0 0 16 16" fill="none" xmlns="http://www.w3.org/2000/svg">
<path d="M11.0204 10.4427L9.12187 9.27468L6.85116 12.8587L8.74971 14.0267L11.0204 10.4427Z" fill="black"/>
<path d="M9.03737 15.2498L8.56273 16H10.2545L9.03737 15.2498Z" fill="black"/>
<path d="M15.1268 10.8889L10.0693 7.77779L9.6001 8.5209L12.2645 10.16L9.51381 14.496L11.9553 16H15.4252C15.5097 16.0004 15.5932 15.9824 15.6698 15.9471C15.7464 15.9118 15.8141 15.8602 15.8681 15.7959C15.922 15.7316 15.961 15.6564 15.982 15.5754C16.003 15.4945 16.0057 15.41 15.9897 15.328L15.1268 10.8889ZM13.1491 14.9582L12.3832 14.4871L13.8215 12.2258L14.5874 12.6951L13.1491 14.9582Z" fill="black"/>
<path d="M0.269164 13.9662L0.0102704 15.328C-0.00567087 15.41 -0.00302743 15.4945 0.0180107 15.5754C0.0390488 15.6564 0.0779586 15.7316 0.131941 15.7959C0.185924 15.8602 0.253638 15.9118 0.330213 15.9471C0.406788 15.9824 0.49032 16.0004 0.574801 16H3.58264L0.269164 13.9662Z" fill="black"/>
<path d="M13.9545 4.86402C13.9292 4.73519 13.8594 4.61906 13.7571 4.53542C13.6548 4.45178 13.5263 4.40581 13.3936 4.40536H9.75292C9.39335 5.42402 8.73173 6.47824 8.13484 7.44535C8.10787 7.48624 8.0827 7.5289 8.05753 7.56979L8.83781 8.04979L9.55695 6.92979C9.62095 6.82999 9.72223 6.75923 9.83874 6.73292C9.95525 6.70662 10.0776 6.7269 10.179 6.78935L14.9074 9.69779L13.9545 4.86402Z" fill="black"/>
<path d="M5.84256 12.7644L8.35957 8.80357L7.59188 8.33246C7.44805 8.57601 7.32041 8.80534 7.21973 9.01334C7.12657 9.20302 6.98131 9.36294 6.80056 9.47483C6.61982 9.58671 6.41088 9.64605 6.19764 9.64605C5.98439 9.64605 5.77545 9.58671 5.59471 9.47483C5.41396 9.36294 5.26871 9.20302 5.17555 9.01334C4.95801 8.57068 4.61821 8.0249 4.26043 7.44712C3.90266 6.86935 3.51432 6.24535 3.18171 5.62313L2.03287 4.91202L0.44895 13.0293L5.28702 16H7.49839L8.27148 14.7804L5.98998 13.376C5.9395 13.3456 5.89561 13.3056 5.86084 13.2583C5.82607 13.2111 5.80111 13.1575 5.78741 13.1006C5.7737 13.0437 5.77152 12.9848 5.78098 12.9271C5.79045 12.8694 5.81138 12.8141 5.84256 12.7644Z" fill="black"/>
<path d="M6.20213 3.46726e-05C5.8137 -0.0018373 5.42871 0.0721092 5.06924 0.217636C4.70976 0.363163 4.38287 0.577408 4.10729 0.848094C3.8317 1.11878 3.61285 1.44058 3.46328 1.79506C3.31371 2.14953 3.23635 2.52971 3.23565 2.9138C3.23565 4.62224 5.2133 7.0489 5.98459 8.62579C6.00362 8.66447 6.03327 8.69707 6.07014 8.71988C6.10702 8.74269 6.14964 8.75479 6.19314 8.75479C6.23664 8.75479 6.27926 8.74269 6.31614 8.71988C6.35302 8.69707 6.38266 8.66447 6.40169 8.62579C7.17478 7.0489 9.15064 4.62224 9.15064 2.9138C9.14921 2.14115 8.83805 1.40057 8.28535 0.854389C7.73266 0.308205 6.98352 0.000974499 6.20213 3.46726e-05ZM6.20213 4.20091C5.91327 4.19986 5.63121 4.1142 5.39155 3.95474C5.15189 3.79529 4.96538 3.56919 4.85558 3.305C4.74577 3.04081 4.7176 2.75037 4.7746 2.47036C4.83161 2.19034 4.97124 1.93331 5.17588 1.73171C5.38051 1.53011 5.64096 1.39298 5.92435 1.33765C6.20773 1.28231 6.50135 1.31124 6.76812 1.42079C7.03489 1.53034 7.26285 1.71559 7.42323 1.95316C7.5836 2.19072 7.66919 2.46995 7.66919 2.75558C7.66896 2.94577 7.63081 3.13404 7.55693 3.30964C7.48306 3.48524 7.3749 3.64472 7.23865 3.77895C7.10239 3.91319 6.94072 4.01955 6.76286 4.09195C6.58501 4.16435 6.39447 4.20138 6.20213 4.20091Z" fill="black"/>
</svg>
