<svg width="220" height="44" viewBox="0 0 220 44" fill="none" xmlns="http://www.w3.org/2000/svg">
<g clip-path="url(#clip0)">
<path d="M14.676 24.5131H8.17288V4.90599H0.587891V-0.0136719H22.261V4.89404H14.676V24.5131Z" fill="#ED1F24"/>
<path d="M36.7017 24.5131H23.7073V19.6054H26.9529V4.89404H23.7073V-0.0136719H36.7017V4.89404H33.456V19.6054H36.7017V24.5131Z" fill="#ED1F24"/>
<path d="M68.841 24.5131H62.3379V-0.0136719H68.841V9.6226H72.0867L77.7078 -0.0136719H84.5637L77.5079 12.0706L84.5637 24.5011H77.7078L72.1102 14.5185H68.8645L68.841 24.5131Z" fill="#ED1F24"/>
<path d="M106.79 24.5131H86.7981V-0.0136719H106.79V4.89404H93.2542V9.67041H103.908V14.5781H93.2542V19.653H106.801L106.79 24.5131Z" fill="#ED1F24"/>
<path d="M121.959 24.5131H115.456V4.90599H107.871V-0.0136719H129.544V4.89404H121.959V24.5131Z" fill="#ED1F24"/>
<path d="M47.9206 4.83497H59.3158V0.0585938H46.4977C44.0047 0.0585938 42.1937 0.603891 41.0647 1.6945C40.4449 2.40937 39.9751 3.24493 39.684 4.15032C39.3928 5.0557 39.2865 6.01182 39.3713 6.96034V17.8983C39.2951 18.7957 39.4008 19.6996 39.6819 20.5539C39.963 21.4083 40.4137 22.1951 41.0059 22.8658C42.4504 24.0447 44.2866 24.6134 46.1332 24.4538H59.304V19.6775H47.4855C47.0493 19.6807 46.6284 19.514 46.3096 19.2118C46.1459 19.0472 46.0183 18.8493 45.9353 18.6312C45.8522 18.4131 45.8154 18.1797 45.8274 17.9461V6.90073C45.796 5.52354 46.4938 4.83497 47.9206 4.83497Z" fill="#ED1F24"/>
<path d="M152.111 24.5131H132.12V-0.0136719H152.111V4.89404H138.576V9.67041H149.23V14.5781H138.576V19.653H152.123L152.111 24.5131Z" fill="#121314"/>
<path d="M155.004 -0.0136719H170.174C172.699 -0.0136719 174.533 0.539609 175.678 1.64614C176.303 2.37259 176.778 3.21974 177.073 4.13694C177.368 5.05414 177.477 6.02246 177.395 6.9837V10.1361C177.482 11.7044 177.14 13.2666 176.407 14.6498C176.048 15.2037 175.583 15.6784 175.04 16.0457C174.496 16.4129 173.885 16.6651 173.243 16.7872L177.759 24.4892H170.703L166.552 17.1335H161.496V24.4892H154.992L155.004 -0.0136719ZM170.892 6.99565C170.892 5.59458 170.17 4.89404 168.728 4.89404H161.507V12.2497H168.728C170.17 12.2497 170.892 11.5491 170.892 10.1481V6.99565Z" fill="#121314"/>
<path d="M192.953 24.5131H179.923V19.6054H183.169V4.89404H179.923V-0.0136719H192.953V4.89404H189.707V19.6054H192.953V24.5131Z" fill="#121314"/>
<path d="M200.691 24.5128H193.635L203.207 -0.00195312H210.428L220 24.5128H212.944L211.321 20.1304H202.36L200.691 24.5128ZM203.936 15.581H209.71L206.817 7.3537L203.936 15.581Z" fill="#121314"/>
<path d="M7.3498 32.418H0V44.0007H7.3498V32.418Z" fill="#ED1F24"/>
<path d="M72.6512 32.418H53.0596V44.0007H72.6512V32.418Z" fill="#ED1F24"/>
<path d="M127.51 32.418H124.065V44.0007H127.51V32.418Z" fill="#ED1F24"/>
<path d="M12.6535 32.418H9.7959V44.0007H12.6535V32.418Z" fill="#ED1F24"/>
<path d="M40.4062 32.418H37.9602V44.0007H40.4062V32.418Z" fill="#ED1F24"/>
<path d="M95.0886 32.418H92.6426V44.0007H95.0886V32.418Z" fill="#ED1F24"/>
<path d="M107.331 32.418H104.885V44.0007H107.331V32.418Z" fill="#ED1F24"/>
<path d="M26.5297 32.418H19.1799V44.0007H26.5297V32.418Z" fill="#ED1F24"/>
<path d="M91.4197 32.418H77.9548V44.0007H91.4197V32.418Z" fill="#ED1F24"/>
<path d="M121.442 32.418H108.965V44.0007H121.442V32.418Z" fill="#ED1F24"/>
<path d="M37.1369 32.418H30.1987V44.0007H37.1369V32.418Z" fill="#ED1F24"/>
<path d="M51.8366 32.418H44.4868V44.0007H51.8366V32.418Z" fill="#ED1F24"/>
<path d="M191.812 32.418H184.874V44.0007H191.812V32.418Z" fill="#121314"/>
<path d="M219.33 32.418H215.884V44.0007H219.33V32.418Z" fill="#121314"/>
<path d="M166.505 32.418H159.567V44.0007H166.505V32.418Z" fill="#121314"/>
<path d="M143.245 32.418H140.799V44.0007H143.245V32.418Z" fill="#121314"/>
<path d="M157.932 32.418H155.486V44.0007H157.932V32.418Z" fill="#121314"/>
<path d="M212.627 32.418H210.181V44.0007H212.627V32.418Z" fill="#121314"/>
<path d="M177.113 32.418H168.14V44.0007H177.113V32.418Z" fill="#121314"/>
<path d="M206.9 32.418H197.927V44.0007H206.9V32.418Z" fill="#121314"/>
<path d="M152.217 32.418H146.914V44.0007H152.217V32.418Z" fill="#121314"/>
<path d="M137.082 32.418H131.779V44.0007H137.082V32.418Z" fill="#121314"/>
</g>
<defs>
<clipPath id="clip0">
<rect width="220" height="44" fill="white"/>
</clipPath>
</defs>
</svg>
