<svg width="21" height="28" viewBox="0 0 21 28" fill="none" xmlns="http://www.w3.org/2000/svg">
<path d="M13.6506 24.3408H7.34943V4.88236H0V0H21V4.8705H13.6506V24.3408Z" fill="#ED1F24"/>
<path d="M5.90597 25.4004H3.46045V27.999H5.90597V25.4004Z" fill="#ED1F24"/>
<path d="M12.7538 25.4004H12.3237V27.999H12.7538V25.4004Z" fill="#ED1F24"/>
<path d="M1.88101 25.4004H1.57568V27.999H1.88101V25.4004Z" fill="#ED1F24"/>
<path d="M8.70669 25.4004H8.40137V27.999H8.70669V25.4004Z" fill="#ED1F24"/>
<path d="M10.2348 25.4004H9.92944V27.999H10.2348V25.4004Z" fill="#ED1F24"/>
<path d="M8.24861 25.4004H6.56787V27.999H8.24861V25.4004Z" fill="#ED1F24"/>
<path d="M11.9962 25.4004H10.4387V27.999H11.9962V25.4004Z" fill="#ED1F24"/>
<path d="M1.47275 25.4004H0.606689V27.999H1.47275V25.4004Z" fill="#ED1F24"/>
<path d="M3.30782 25.4004H2.39038V27.999H3.30782V25.4004Z" fill="#ED1F24"/>
<path d="M20.7801 25.4004H19.9141V27.999H20.7801V25.4004Z" fill="#121314"/>
<path d="M17.6212 25.4004H16.7551V27.999H17.6212V25.4004Z" fill="#121314"/>
<path d="M14.7177 25.4004H14.4124V27.999H14.7177V25.4004Z" fill="#121314"/>
<path d="M16.5512 25.4004H16.2458V27.999H16.5512V25.4004Z" fill="#121314"/>
<path d="M18.9452 25.4004H17.8252V27.999H18.9452V25.4004Z" fill="#121314"/>
<path d="M15.8378 25.4004H15.1758V27.999H15.8378V25.4004Z" fill="#121314"/>
<path d="M13.9484 25.4004H13.2864V27.999H13.9484V25.4004Z" fill="#121314"/>
</svg>
